<?xml version="1.0" standalone="no"?><!DOCTYPE svg PUBLIC "-//W3C//DTD SVG 1.1//EN" "http://www.w3.org/Graphics/SVG/1.1/DTD/svg11.dtd"><svg t="1656741409660" class="icon" viewBox="0 0 1024 1024" version="1.1" xmlns="http://www.w3.org/2000/svg" p-id="1838" xmlns:xlink="http://www.w3.org/1999/xlink" width="128" height="128"><defs><style type="text/css">@font-face { font-family: feedback-iconfont; src: url("//at.alicdn.com/t/font_1031158_u69w8yhxdu.woff2?t=1630033759944") format("woff2"), url("//at.alicdn.com/t/font_1031158_u69w8yhxdu.woff?t=1630033759944") format("woff"), url("//at.alicdn.com/t/font_1031158_u69w8yhxdu.ttf?t=1630033759944") format("truetype"); }
</style></defs><path d="M611.607809 530.415646c-23.551274 6.357137-26.239191 7.679763-49.662469 14.378223-25.129892-14.378223-47.230544-22.441975-68.051235-19.754058 2.431925-13.055597 6.442468-22.399309 10.453011-34.132281 44.201304-6.442468 77.010959 17.06614 107.260693 39.508116z m226.467684 307.233193a460.615131 460.615131 0 0 1-81.362825 64.893999h-0.255992l-157.94713-196.85793 130.982628 14.335558s62.760732 6.442468 77.09629 0c13.140928-4.991846 83.752084-104.487445 83.752084-104.487445s-203.044406-128.380042-272.375602-199.076528c8.021086-119.206991-9.08772-277.708771-9.08772-276.428811-50.899764 50.985095-57.598224 59.006181-108.540653 106.194059-22.185983-72.019113-32.809655-96.807682-54.995638-168.869459-66.899271 54.995638-117.884365 147.792776-154.448571 256.674752a524.357166 524.357166 0 0 0-23.508608 27.988471c-4.778519 6.69846-9.813031 13.354255-14.676881 20.266041-9.855696 13.908904-19.199408 28.799112-28.287128 44.030643-6.399803 10.964995-12.75694 22.185983-18.687424 33.620296-2.687917 4.778519-5.333169 9.855696-8.021086 14.932873-38.953466 76.285648-71.507129 161.659016-99.794256 239.096628A461.852426 461.852426 0 0 1 51.369083 511.984214c0-122.1509 48.55317-239.523281 134.993171-325.963283S389.833313 51.241087 511.984214 51.241087a460.785792 460.785792 0 0 1 326.048613 134.737179 462.108418 462.108418 0 0 1 134.651849 325.963282 461.383107 461.383107 0 0 1-134.609183 325.707291M511.984214 285.473865c35.497572-34.174946 40.574749-39.252123 74.70703-72.061779 2.687917 65.363318 1.322626 99.538264-2.687917 179.322471-19.754058-19.540731-58.92085-44.542627-58.92085-44.542626s-7.722429-45.651926-13.098263-62.718066m163.578956 659.77699c-282.273963 102.098185-486.299672-85.928017-529.775665-151.547328 0.255992-0.597315 0.255992-1.151964 0.255992-1.663948 39.252123-165.925551 87.805293-364.148772 165.712224-422.81363 40.74541-70.653822 52.521047-175.525255 125.564128-230.478227 18.431432 54.952972 47.230544 168.86946 66.984602 223.822432 86.397336 86.440001 217.038641 193.956686 304.886599 238.499313 9.045054 5.119842 20.863357 41.854709 20.863357 41.85471l-35.198915 44.286634-376.948377-37.844166c-8.53307-0.853307-16.810148-1.19463-25.343219-1.19463-24.276585 0-49.065154 3.114571-78.205589 7.679763 18.431432-45.694591 57.598224-82.60012 57.598224-82.60012s-36.478875-22.143317-64.211353-25.812537c7.978421-18.431432 29.055104-42.196032 34.089615-48.55317-10.36768 3.711886-86.397336 37.886832-94.16243 66.685944 36.564206 9.130385 62.675401 20.778026 62.675401 20.778026s-40.489418 40.830741-48.254512 111.441897c0 0 120.31629-18.388766 210.724169-6.527799 2.687917 1.279961 4.010543 1.279961 5.333169 1.279961l47.017217 1.322626 149.712718 249.208316 1.151964 1.919941a0.511984 0.511984 0 0 1-0.469319 0.255992m198.479214-795.282146A512.837521 512.837521 0 0 0 511.984214 0C376.223066 0 246.093745 54.184996 150.011375 149.968709 54.270327 246.008415 0.085331 376.180401 0.085331 511.984214s54.184996 266.018464 149.883378 361.716847a511.130907 511.130907 0 0 0 724.073675 0c96.039705-95.698383 149.840713-225.9557 149.840713-361.716847s-53.801008-265.975799-149.840713-362.015505z" p-id="1839" fill="#424874"></path></svg>