<?xml version="1.0" standalone="no"?><!DOCTYPE svg PUBLIC "-//W3C//DTD SVG 1.1//EN" "http://www.w3.org/Graphics/SVG/1.1/DTD/svg11.dtd"><svg t="1652914748499" class="icon" viewBox="0 0 1224 1024" version="1.1" xmlns="http://www.w3.org/2000/svg" p-id="26441" xmlns:xlink="http://www.w3.org/1999/xlink" width="153" height="128"><defs><style type="text/css">@font-face { font-family: feedback-iconfont; src: url("//at.alicdn.com/t/font_1031158_u69w8yhxdu.woff2?t=1630033759944") format("woff2"), url("//at.alicdn.com/t/font_1031158_u69w8yhxdu.woff?t=1630033759944") format("woff"), url("//at.alicdn.com/t/font_1031158_u69w8yhxdu.ttf?t=1630033759944") format("truetype"); }
</style></defs><path d="M446.317131 217.85498c32.63745-32.63745-1.631873-81.593625 18.766534-119.126693 12.239044-30.189641 45.69243-43.244622 76.698008-44.060558-32.63745-43.244622-107.703586-39.16494-136.261355 6.52749-32.63745 46.508367-3.263745 106.887649-26.10996 156.659761C397.360956 234.173705 429.18247 239.069323 446.317131 217.85498z" p-id="26442" fill="#424874"></path><path d="M629.902789 385.937849c4.895618-61.195219-4.079681-124.838247-40.796813-175.426295 19.58247-12.239044 38.349004-26.925896 50.588048-47.324303-26.10996-8.975299-53.035857-16.318725-79.145817-25.294024 17.950598-7.343426 36.717131-8.159363 55.483665-8.975299C603.792829 94.648606 567.891633 67.722709 530.358566 72.618327 496.905179 73.434263 469.979283 106.071713 474.8749 138.709163c2.447809 26.10996 23.662151 45.69243 45.69243 57.931474-28.557769 41.612749-70.170518 79.961753-76.698008 132.181673C315.767331 238.253386 185.21753 150.132271 55.483665 61.195219c0 12.239044 0.815936 24.478088 0.815936 36.717131C195.824701 195.008765 335.349801 290.473307 474.8749 386.753785 527.094821 385.937849 578.498805 385.937849 629.902789 385.937849z" p-id="26443" fill="#424874"></path><path d="M1187.187251 825.72749c-19.58247-17.950598-43.244622-31.821514-65.2749-46.508367C1017.47251 706.600797 912.216733 634.798406 807.776892 562.996016c13.05498-47.324303 35.085259-93.016733 65.2749-131.365737 33.453386 22.846215 9.791235 74.250199 44.876494 93.832669 24.478088 12.239044 53.035857-5.711554 56.299602-31.005578 4.079681-36.717131-3.263745-74.250199 10.607171-109.335458 12.239044-31.821514 11.423108-66.090837 8.975299-98.728287 13.05498-12.239044 26.925896-23.662151 40.796813-34.269323-69.354582-35.901195-155.843825-31.821514-225.198406 2.447809-55.483665 27.741833-105.255777 70.986454-136.261355 124.838247-4.895618 59.563347 4.895618 119.942629-5.711554 179.505976-7.343426 37.533068-40.796813 58.74741-66.090837 84.857371 24.478088 15.502789 47.324303 32.63745 70.986454 49.772112-7.343426 82.409562-11.423108 164.819124-17.134661 247.228685 4.895618 17.950598 16.318725 34.269323 25.294024 49.772112 26.10996-1.631873 51.403984-0.815936 77.513944 0-17.950598-24.478088-36.717131-48.956175-53.035857-74.250199 26.10996-76.698008 48.140239-155.027888 72.618327-232.541833 33.453386 0 67.722709 0 101.176096 0-0.815936 19.58247 1.631873 39.16494-3.263745 57.931474-4.895618 15.502789-21.214343 20.398406-34.269323 26.10996 0 18.766534 0 36.717131 0 55.483665 27.741833 0.815936 57.115538-8.159363 74.250199-31.005578 25.294024-28.557769 24.478088-69.354582 22.030279-104.439841 65.2749 46.508367 132.181673 91.384861 198.27251 137.077291C1152.101992 823.279681 1169.236653 824.095618 1187.187251 825.72749zM915.480478 278.234263c4.079681 64.458964 8.975299 129.733865 15.502789 194.192829-20.398406-54.667729-24.478088-114.231076-42.428685-169.714741-17.950598 4.895618-36.717131 10.607171-54.667729 15.502789C853.469323 292.921116 885.290837 284.761753 915.480478 278.234263z" p-id="26444" fill="#424874"></path><path d="M550.756972 629.086853c20.398406-43.244622 43.244622-85.673307 61.195219-129.733865-18.766534 0-36.717131 0-55.483665 0-1.631873-34.269323 4.079681-68.538645-0.815936-101.992032-21.214343 43.244622-41.612749 87.305179-63.643028 130.549801 18.766534 1.631873 36.717131 0.815936 55.483665 0.815936C551.572908 562.18008 540.965737 597.265339 550.756972 629.086853z" p-id="26445" fill="#424874"></path><path d="M327.190438 428.366534c-50.588048-22.030279-112.599203-22.030279-159.10757 9.791235-43.244622 29.373705-65.2749 81.593625-67.722709 132.181673-4.079681 55.483665-11.423108 113.415139-43.244622 160.739442 42.428685-4.079681 88.937052-16.318725 115.862948-53.035857 39.980876-49.772112 10.607171-121.574502 45.69243-173.794422C239.069323 461.003984 285.577689 443.053386 327.190438 428.366534z" p-id="26446" fill="#424874"></path><path d="M607.87251 710.680478c-36.717131-24.478088-73.434263-48.956175-110.151394-73.434263-33.453386-22.846215-59.563347-58.74741-63.643028-100.360159-2.447809-35.085259 0-69.354582-0.815936-104.439841-37.533068-0.815936-77.513944-3.263745-112.599203 13.05498-63.643028 26.10996-103.623904 99.544223-91.384861 167.266932 4.079681 27.741833 17.134661 53.035857 34.269323 75.066135-19.58247 39.16494-37.533068 79.145817-56.299602 118.310757 19.58247 60.379283 36.717131 121.574502 54.667729 182.769721 27.741833 0 54.667729 0 81.593625 0.815936-22.030279-51.403984-41.612749-104.439841-64.458964-155.843825 62.011155-31.821514 115.862948-78.32988 155.843825-135.445418 35.901195 17.950598 70.986454 36.717131 106.887649 53.851793 0.815936 17.950598 4.079681 36.717131-1.631873 54.667729-8.159363 17.134661-28.557769 19.58247-44.876494 21.214343 0 20.398406 0.815936 40.796813 0.815936 62.011155 41.612749-2.447809 91.384861-15.502789 106.887649-59.563347C613.584064 791.458167 606.240637 750.661355 607.87251 710.680478z" p-id="26447" fill="#424874"></path></svg>