<?xml version="1.0" standalone="no"?><!DOCTYPE svg PUBLIC "-//W3C//DTD SVG 1.1//EN" "http://www.w3.org/Graphics/SVG/1.1/DTD/svg11.dtd"><svg t="1656093814700" class="icon" viewBox="0 0 1024 1024" version="1.1" xmlns="http://www.w3.org/2000/svg" p-id="6910" xmlns:xlink="http://www.w3.org/1999/xlink" width="128" height="128"><defs><style type="text/css">@font-face { font-family: feedback-iconfont; src: url("//at.alicdn.com/t/font_1031158_u69w8yhxdu.woff2?t=1630033759944") format("woff2"), url("//at.alicdn.com/t/font_1031158_u69w8yhxdu.woff?t=1630033759944") format("woff"), url("//at.alicdn.com/t/font_1031158_u69w8yhxdu.ttf?t=1630033759944") format("truetype"); }
</style></defs><path d="M337.92 873.813333h-6.826667C279.893333 849.92 17.066667 733.866667 17.066667 641.706667c0-102.4 37.546667-259.413333 139.946666-361.813334 6.826667-6.826667 17.066667-6.826667 23.893334 0 6.826667 6.826667 6.826667 17.066667 0 23.893334-95.573333 95.573333-133.12 242.346667-133.12 337.92 0 51.2 170.666667 146.773333 293.546666 197.973333 10.24 3.413333 13.653333 13.653333 10.24 23.893333 0 6.826667-6.826667 10.24-13.653333 10.24z" fill="#424874" p-id="6911"></path><path d="M119.466667 341.333333c-3.413333 0-10.24 0-13.653334-3.413333C51.2 279.893333 17.066667 160.426667 17.066667 17.066667 17.066667 6.826667 23.893333 0 34.133333 0c136.533333 0 221.866667 102.4 221.866667 153.6 0 10.24-6.826667 17.066667-17.066667 17.066667s-17.066667-6.826667-17.066666-17.066667c0-27.306667-61.44-109.226667-170.666667-119.466667 3.413333 150.186667 44.373333 242.346667 78.506667 276.48 6.826667 6.826667 6.826667 20.48 3.413333 27.306667-3.413333 3.413333-10.24 3.413333-13.653333 3.413333z" fill="#424874" p-id="6912"></path><path d="M375.466667 170.666667c-3.413333 0-6.826667 0-6.826667-3.413334C317.44 143.36 228.693333 102.4 204.8 102.4c-10.24 0-17.066667-6.826667-17.066667-17.066667S194.56 68.266667 204.8 68.266667c40.96 0 157.013333 58.026667 177.493333 71.68 6.826667 3.413333 10.24 13.653333 6.826667 23.893333 0 3.413333-6.826667 6.826667-13.653333 6.826667zM170.666667 307.2c-10.24 0-17.066667-6.826667-17.066667-17.066667 0 0 0-150.186667-109.226667-187.733333-6.826667-3.413333-13.653333-13.653333-10.24-23.893333 3.413333-6.826667 13.653333-13.653333 23.893334-10.24 129.706667 47.786667 129.706667 215.04 129.706666 221.866666 0 10.24-6.826667 17.066667-17.066666 17.066667zM512 1024c-64.853333 0-112.64-23.893333-116.053333-23.893333-3.413333 0-6.826667-3.413333-6.826667-6.826667-10.24-20.48-98.986667-204.8-98.986667-259.413333 0-58.026667 68.266667-109.226667 75.093334-116.053334 6.826667-6.826667 17.066667-3.413333 23.893333 3.413334 6.826667 6.826667 3.413333 17.066667-3.413333 23.893333-17.066667 13.653333-61.44 54.613333-61.44 88.746667s54.613333 160.426667 92.16 238.933333c13.653333 6.826667 51.2 17.066667 95.573333 17.066667 47.786667 0 81.92-13.653333 95.573333-17.066667 37.546667-78.506667 92.16-204.8 92.16-238.933333s-44.373333-75.093333-61.44-88.746667c-6.826667-6.826667-10.24-17.066667-3.413333-23.893333 6.826667-6.826667 17.066667-10.24 23.893333-3.413334 6.826667 6.826667 75.093333 58.026667 75.093334 116.053334 0 51.2-88.746667 238.933333-98.986667 259.413333-3.413333 3.413333-3.413333 6.826667-6.826667 6.826667s-51.2 23.893333-116.053333 23.893333z" fill="#424874" p-id="6913"></path><path d="M686.08 873.813333c-6.826667 0-13.653333-3.413333-17.066667-10.24-3.413333-10.24 0-17.066667 10.24-23.893333 122.88-51.2 293.546667-150.186667 293.546667-197.973333 0-85.333333-27.306667-252.586667-133.12-354.986667-6.826667-6.826667-6.826667-17.066667 0-23.893333s17.066667-6.826667 23.893333 0c112.64 109.226667 139.946667 290.133333 139.946667 378.88 0 88.746667-262.826667 208.213333-314.026667 232.106666h-3.413333z" fill="#424874" p-id="6914"></path><path d="M904.533333 334.506667c-3.413333 0-10.24 0-13.653333-3.413334-6.826667-6.826667-6.826667-17.066667 0-23.893333 37.546667-37.546667 78.506667-129.706667 81.92-273.066667-109.226667 6.826667-170.666667 92.16-170.666667 119.466667 0 10.24-6.826667 17.066667-17.066666 17.066667s-17.066667-6.826667-17.066667-17.066667C768 102.4 853.333333 0 989.866667 0c10.24 0 17.066667 6.826667 17.066666 17.066667 0 139.946667-34.133333 256-92.16 314.026666-3.413333 3.413333-6.826667 3.413333-10.24 3.413334z" fill="#424874" p-id="6915"></path><path d="M648.533333 170.666667c-6.826667 0-13.653333-3.413333-13.653333-10.24-3.413333-6.826667 0-17.066667 6.826667-23.893334 20.48-10.24 136.533333-68.266667 177.493333-68.266666 10.24 0 17.066667 6.826667 17.066667 17.066666s-6.826667 17.066667-17.066667 17.066667c-23.893333 0-112.64 40.96-163.84 64.853333 0 3.413333-3.413333 3.413333-6.826667 3.413334zM853.333333 290.133333c-10.24 0-17.066667-6.826667-17.066666-17.066666 0 0 0-122.88 129.706666-170.666667 10.24-3.413333 17.066667 0 20.48 10.24 3.413333 10.24 0 17.066667-10.24 20.48-109.226667 37.546667-109.226667 136.533333-109.226666 136.533333 3.413333 13.653333-3.413333 20.48-13.653334 20.48z" fill="#424874" p-id="6916"></path><path d="M706.56 119.466667c-3.413333 0-6.826667 0-10.24-3.413334C648.533333 85.333333 576.853333 68.266667 512 68.266667s-136.533333 17.066667-187.733333 47.786666c-6.826667 6.826667-17.066667 3.413333-23.893334-3.413333-3.413333-10.24 0-20.48 6.826667-23.893333 54.613333-34.133333 133.12-54.613333 204.8-54.613334s146.773333 20.48 204.8 54.613334c6.826667 3.413333 10.24 17.066667 6.826667 23.893333-3.413333 3.413333-10.24 6.826667-17.066667 6.826667zM512 829.44h-6.826667c-51.2-17.066667-112.64-47.786667-112.64-78.506667 0-40.96 61.44-68.266667 119.466667-68.266666s119.466667 27.306667 119.466667 68.266666c0 30.72-61.44 61.44-112.64 78.506667H512z m0-112.64c-44.373333 0-85.333333 23.893333-85.333333 34.133333 3.413333 6.826667 44.373333 27.306667 85.333333 44.373334 40.96-13.653333 81.92-37.546667 85.333333-44.373334 0-10.24-40.96-34.133333-85.333333-34.133333z" fill="#424874" p-id="6917"></path><path d="M402.773333 979.626667c-6.826667 0-10.24-3.413333-13.653333-6.826667-3.413333-6.826667-3.413333-17.066667 6.826667-23.893333l98.986666-58.026667v-75.093333c0-10.24 6.826667-17.066667 17.066667-17.066667s17.066667 6.826667 17.066667 17.066667v85.333333c0 6.826667-3.413333 10.24-6.826667 13.653333l-109.226667 64.853334h-10.24z" fill="#424874" p-id="6918"></path><path d="M621.226667 979.626667c-3.413333 0-6.826667 0-10.24-3.413334l-109.226667-64.853333c-6.826667-3.413333-10.24-13.653333-6.826667-23.893333 3.413333-6.826667 13.653333-10.24 23.893334-6.826667l109.226666 64.853333c6.826667 3.413333 10.24 13.653333 6.826667 23.893334-3.413333 10.24-6.826667 10.24-13.653333 10.24zM682.666667 546.133333c-27.306667 0-51.2-23.893333-51.2-51.2S655.36 443.733333 682.666667 443.733333s51.2 23.893333 51.2 51.2S709.973333 546.133333 682.666667 546.133333z m0-68.266666c-10.24 0-17.066667 6.826667-17.066667 17.066666s6.826667 17.066667 17.066667 17.066667 17.066667-6.826667 17.066666-17.066667-6.826667-17.066667-17.066666-17.066666zM341.333333 546.133333c-27.306667 0-51.2-23.893333-51.2-51.2S314.026667 443.733333 341.333333 443.733333s51.2 23.893333 51.2 51.2S368.64 546.133333 341.333333 546.133333z m0-68.266666c-10.24 0-17.066667 6.826667-17.066666 17.066666s6.826667 17.066667 17.066666 17.066667 17.066667-6.826667 17.066667-17.066667-6.826667-17.066667-17.066667-17.066666z" fill="#424874" p-id="6919"></path></svg>