<?xml version="1.0" standalone="no"?><!DOCTYPE svg PUBLIC "-//W3C//DTD SVG 1.1//EN" "http://www.w3.org/Graphics/SVG/1.1/DTD/svg11.dtd"><svg t="1656759082451" class="icon" viewBox="0 0 1024 1024" version="1.1" xmlns="http://www.w3.org/2000/svg" p-id="13293" xmlns:xlink="http://www.w3.org/1999/xlink" width="128" height="128"><defs><style type="text/css">@font-face { font-family: feedback-iconfont; src: url("//at.alicdn.com/t/font_1031158_u69w8yhxdu.woff2?t=1630033759944") format("woff2"), url("//at.alicdn.com/t/font_1031158_u69w8yhxdu.woff?t=1630033759944") format("woff"), url("//at.alicdn.com/t/font_1031158_u69w8yhxdu.ttf?t=1630033759944") format("truetype"); }
</style></defs><path d="M694.334381 6.972794H329.693249c-177.942359 0-322.716361 144.789351-322.716361 322.730688v364.592013c0 177.969988 144.775025 322.730687 322.716361 322.730687h364.641132c177.928033 0 322.688732-144.760699 322.688731-322.730687V329.704505c0-177.942359-144.760699-322.73171-322.688731-322.731711z m259.001351 687.323724c0 143.083503-115.960827 259.04433-259.002375 259.04433H329.693249c-143.041548 0-259.002374-115.959803-259.002375-259.04433V329.704505c0-143.055874 115.959803-259.015677 259.002375-259.015677h364.641132c143.040524 0 259.002374 115.959803 259.002374 259.015677v364.592013z" p-id="13294" fill="#424874"></path><path d="M148.326914 553.579918c11.722972 0 21.220258-9.511612 21.220258-21.233562V327.520774c0-87.104673 70.871999-157.962346 157.961322-157.962346h368.995291c37.084543 0 73.154991 13.159691 101.559868 37.07124 8.989727 7.537658 22.346916 6.411001 29.927553-2.5644 7.551985-8.988704 6.397698-22.374545-2.5644-29.927554-36.070448-30.335852-81.863309-47.032082-128.923021-47.032082H327.508494c-110.506616 0-200.416165 89.8942-200.416165 200.416165v204.826606c0.001023 11.719902 9.483983 21.231515 21.234585 21.231515zM854.480457 327.520774v368.988128c0 87.10365-70.871999 157.962346-157.976672 157.962346H327.508494c-87.089323 0-157.961322-70.858696-157.961322-157.962346 0-11.738322-9.497286-21.233561-21.220258-21.233561-11.749578 0-21.233561 9.495239-21.233561 21.233561 0 110.506616 89.908526 200.429468 200.416165 200.429468h368.995291c110.521965 0 200.416165-89.922852 200.416165-200.429468V327.520774c0-11.750602-9.496263-21.247887-21.219235-21.247888s-21.221282 9.496263-21.221282 21.247888z" p-id="13295" fill="#424874"></path><path d="M677.707735 431.800584c0-91.373898-74.309278-165.712851-165.698525-165.712852-91.365711 0-165.690339 74.338954-165.690339 165.712852 0 11.708646 9.496263 21.233561 21.219235 21.233561s21.233561-9.524915 21.233561-21.233561c0-67.969908 55.289123-123.244706 123.237543-123.244706 67.943303 0 123.232426 55.274797 123.232426 123.244706 0 43.566151-27.899364 87.582556-64.898973 102.377487-34.153799 13.652924-79.544502 37.901139-79.544502 90.640189 0 11.722972 9.48296 21.233561 21.212072 21.233561 11.722972 0 21.220258-9.510589 21.220258-21.233561 0-14.878842 6.284111-32.575864 52.893569-51.20307 53.06139-21.233561 91.583675-80.87582 91.583675-141.814606zM512.00921 695.959388c-22.169884 0-40.148315 17.991734-40.148315 40.142175s17.978431 40.143199 40.148315 40.143199c22.150442 0 40.129896-17.992757 40.129895-40.143199s-17.979454-40.142175-40.129895-40.142175z" p-id="13296" fill="#424874"></path></svg>