<?xml version="1.0" standalone="no"?><!DOCTYPE svg PUBLIC "-//W3C//DTD SVG 1.1//EN" "http://www.w3.org/Graphics/SVG/1.1/DTD/svg11.dtd"><svg t="1656758772877" class="icon" viewBox="0 0 1024 1024" version="1.1" xmlns="http://www.w3.org/2000/svg" p-id="6523" xmlns:xlink="http://www.w3.org/1999/xlink" width="128" height="128"><defs><style type="text/css">@font-face { font-family: feedback-iconfont; src: url("//at.alicdn.com/t/font_1031158_u69w8yhxdu.woff2?t=1630033759944") format("woff2"), url("//at.alicdn.com/t/font_1031158_u69w8yhxdu.woff?t=1630033759944") format("woff"), url("//at.alicdn.com/t/font_1031158_u69w8yhxdu.ttf?t=1630033759944") format("truetype"); }
</style></defs><path d="M399.5 618.1h61.6v61.6h-61.6zM558.7 405c9.1-16.2 13.5-34 13.5-53.2 0-33.2-12.9-61.6-38.5-85s-60-35.1-103-35.1c-40.7 0-73.4 10.9-98.1 32.7-24.8 21.8-39.6 53.3-44.6 94.4l55.6 6.6c4.8-30.7 15-53.2 30.4-67.6 15.4-14.4 34.6-21.6 57.7-21.6 23.8 0 44 7.9 60.4 23.9 16.4 15.9 24.6 34.4 24.6 55.4 0 11.6-2.8 22.3-8.4 32.1-5.5 9.8-17.7 23-36.5 39.5-18.7 16.6-31.7 29.1-38.9 37.8-9.8 11.8-16.9 23.6-21.3 35.1-6 15.4-9.1 33.8-9.1 55 0 3.5 0.1 9 0.3 16.2h52c0.4-21.7 1.9-37.3 4.5-46.9 2.6-9.6 6.7-18.1 12-25.5 5.4-7.5 16.9-19 34.6-34.6 26.2-23.3 43.9-43 52.8-59.2z m0 0" fill="#424874" p-id="6524"></path><path d="M120.2 119.8h671.3v167.8h55.9V119.8c0-30.9-25-55.9-55.9-55.9H120.2c-30.9 0-55.9 25-55.9 55.9V903c0 30.9 25 55.9 55.9 55.9h279.7V903H120.2V119.8z m0 0M949.5 394.1c-11.4-9.6-29.1-8.4-39.1 3.5L518.2 869c-9.7 11.6-8.3 29.5 3.4 39.4 11.4 9.6 29.3 8.3 39.1-3.5l392.2-471.4c9.7-11.6 8.3-29.5-3.4-39.4z m0 0" fill="#424874" p-id="6525"></path></svg>