<?xml version="1.0" standalone="no"?><!DOCTYPE svg PUBLIC "-//W3C//DTD SVG 1.1//EN" "http://www.w3.org/Graphics/SVG/1.1/DTD/svg11.dtd"><svg t="1652914694306" class="icon" viewBox="0 0 1024 1024" version="1.1" xmlns="http://www.w3.org/2000/svg" p-id="25298" xmlns:xlink="http://www.w3.org/1999/xlink" width="128" height="128"><defs><style type="text/css">@font-face { font-family: feedback-iconfont; src: url("//at.alicdn.com/t/font_1031158_u69w8yhxdu.woff2?t=1630033759944") format("woff2"), url("//at.alicdn.com/t/font_1031158_u69w8yhxdu.woff?t=1630033759944") format("woff"), url("//at.alicdn.com/t/font_1031158_u69w8yhxdu.ttf?t=1630033759944") format("truetype"); }
</style></defs><path d="M512 0C228.266667 0 0 228.266667 0 512s228.266667 512 512 512 512-228.266667 512-512S795.733333 0 512 0z m0 981.333333C253.866667 981.333333 42.666667 770.133333 42.666667 512S253.866667 42.666667 512 42.666667s469.333333 211.2 469.333333 469.333333-211.2 469.333333-469.333333 469.333333z" fill="#424874" p-id="25299"></path><path d="M256 448m-64 0a64 64 0 1 0 128 0 64 64 0 1 0-128 0Z" fill="#424874" p-id="25300"></path><path d="M768 448m-64 0a64 64 0 1 0 128 0 64 64 0 1 0-128 0Z" fill="#424874" p-id="25301"></path><path d="M704 746.666667H320c-12.8 0-21.333333 8.533333-21.333333 21.333333s8.533333 21.333333 21.333333 21.333333h384c12.8 0 21.333333-8.533333 21.333333-21.333333s-8.533333-21.333333-21.333333-21.333333z" fill="#424874" p-id="25302"></path></svg>