<?xml version="1.0" standalone="no"?><!DOCTYPE svg PUBLIC "-//W3C//DTD SVG 1.1//EN" "http://www.w3.org/Graphics/SVG/1.1/DTD/svg11.dtd"><svg t="1652914444179" class="icon" viewBox="0 0 1415 1024" version="1.1" xmlns="http://www.w3.org/2000/svg" p-id="19202" xmlns:xlink="http://www.w3.org/1999/xlink" width="176.875" height="128"><defs><style type="text/css">@font-face { font-family: feedback-iconfont; src: url("//at.alicdn.com/t/font_1031158_u69w8yhxdu.woff2?t=1630033759944") format("woff2"), url("//at.alicdn.com/t/font_1031158_u69w8yhxdu.woff?t=1630033759944") format("woff"), url("//at.alicdn.com/t/font_1031158_u69w8yhxdu.ttf?t=1630033759944") format("truetype"); }
</style></defs><path d="M1404.898716 886.323315c3.389382-11.862836 6.778763-22.030981 0-35.588508-20.33629-20.33629-44.061962-22.030981-69.482325-6.778763l-20.33629-25.420363c-8.473454-11.862836-16.946909-22.030981-23.725672-33.893817-6.778763-11.862836-10.168145-23.725672-15.252218-35.588508-5.084073-11.862836-11.862836-22.030981-18.641599-33.893817-3.389382-6.778763-6.778763-13.557527-11.862836-18.641599-8.473454-10.168145-15.252218-55.924798-23.725672-66.092943-6.778763-6.778763-11.862836-15.252218-18.6416-20.336291-8.473454-6.778763-18.641599-11.862836-27.115053-20.33629-11.862836-11.862836-28.809744-18.641599-42.367271-27.115053-10.168145-6.778763-20.33629-10.168145-30.504436-15.252218-6.778763-3.389382-11.862836-6.778763-18.641599-10.168145-8.473454-5.084073-18.641599-11.862836-27.115054-15.252218-10.168145-5.084073-20.33629-10.168145-28.809744-13.557527h-1.694691l-25.420363-15.252217c-10.168145-5.084073-20.33629-10.168145-30.504435-13.557527h-1.694691l-25.420363-15.252218-30.504435-15.252217s-1.694691 0-1.694691-1.694691c-8.473454-5.084073-16.946909-11.862836-27.115054-15.252218-16.946909-8.473454-37.283199-11.862836-54.230107-22.030981-11.862836-8.473454-27.115054-11.862836-40.67258-18.641599-13.557527-5.084073-25.420363-11.862836-38.97789-16.946909h-1.694691c-8.473454-5.084073-16.946909-10.168145-27.115053-15.252218-10.168145-5.084073-20.33629-10.168145-30.504436-13.557526h-1.694691l-25.420362-15.252218c-10.168145-5.084073-20.33629-10.168145-30.504436-13.557527h-1.69469c-10.168145-5.084073-20.33629-11.862836-30.504436-16.946908-10.168145-5.084073-18.641599-8.473454-28.809744-13.557527h-1.694691l-25.420363-15.252218c-10.168145-5.084073-20.33629-10.168145-30.504435-13.557527h-1.694691l-25.420363-15.252217-30.504435-15.252218s-1.694691 0-1.694691-1.694691l-25.420363-15.252217c-10.168145-5.084073-20.33629-10.168145-30.504435-13.557527h-1.694691l-25.420363-15.252218c-11.862836-18.641599-22.030981-23.725672-33.893817-28.809744 0 0-1.694691 0-1.694691-1.694691-8.473454-5.084073-16.946909-10.168145-27.115053-15.252218-10.168145-5.084073-20.33629-10.168145-30.504436-13.557527h-1.69469l-25.420363-15.252217c-10.168145-5.084073-20.33629-10.168145-30.504435-13.557527H220.309811c-6.778763-8.473454-16.946909-13.557527-25.420363-18.6416-10.168145-5.084073-20.33629-10.168145-28.809745-13.557526h-1.69469c-8.473454-5.084073-16.946909-10.168145-27.115054-15.252218-10.168145-8.473454-38.97789-28.809744-49.146035-33.893817 0 0-1.694691 0-1.694691-1.694691C77.955779 6.778763 71.177016 3.389382 64.398252 0c-1.694691 0-5.084073 0-6.778763 1.694691-6.778763 10.168145-15.252218 59.31418-22.030981 69.482325-3.389382 8.473454-5.084073 16.946909-6.778764 27.115053 0 5.084073 1.694691 11.862836 3.389382 13.557527 6.778763 5.084073 15.252218 8.473454 22.030981 11.862836 8.473454 3.389382 8.473454 11.862836 45.756653 30.504435 0 8.473454-18.641599-1.694691-20.33629 6.778764-6.778763-3.389382-13.557527-3.389382-18.641599-6.778764-6.778763-5.084073-22.030981-5.084073-27.115054 0-6.778763 6.778763-15.252218 10.168145-18.641599 20.336291-3.389382 6.778763-6.778763 15.252218-8.473455 22.030981-1.694691 6.778763-3.389382 15.252218 1.694691 20.33629 6.778763 8.473454 28.809744 33.893817 40.672581 38.97789 10.168145 3.389382 11.862836 27.115054 10.168145 37.283198v3.389382c6.778763 13.557527 10.168145 47.451344 23.725672 55.924798 8.473454 6.778763 16.946909 13.557527 25.420362 18.641599 10.168145 5.084073 20.33629 10.168145 30.504436 13.557527l35.588508 15.252218c11.862836 5.084073 23.725672 8.473454 35.588508 15.252218 10.168145 6.778763 23.725672 11.862836 35.588507 16.946908 10.168145 5.084073 22.030981 10.168145 32.199127 15.252218 11.862836 5.084073 23.725672 10.168145 37.283198 16.946908 10.168145 5.084073 20.33629 10.168145 30.504436 13.557527 11.862836 5.084073 25.420363 11.862836 37.283198 16.946909 10.168145 5.084073 20.33629 8.473454 28.809745 13.557526 11.862836 5.084073 25.420363 11.862836 37.283199 16.946909 18.641599 8.473454 38.97789 16.946909 57.619489 23.725672 0 0 1.694691 0 1.69469 1.694691 6.778763 1.694691 15.252218 6.778763 22.030981 6.778763 15.252218 0 45.756653-42.367271 59.31418-44.061962 6.778763-1.694691 3.389382-5.084073 16.946909 1.694691 8.473454 5.084073 5.084073 5.084073 13.557527 8.473454 11.862836 5.084073 22.030981 10.168145 33.893817 15.252218 15.252218 6.778763 32.199126 13.557527 47.451343 20.33629h1.694691c11.862836 6.778763 23.725672 13.557527 35.588508 18.641599 16.946909 8.473454 33.893817 15.252218 50.840726 22.030981l1.694691 1.694691c-8.473454 10.168145-1.694691 20.33629 5.084072 28.809745 10.168145 11.862836 25.420363 16.946909 42.367271 18.641599 11.862836 1.694691 23.725672 0 35.588508 8.473454 8.473454 6.778763 18.641599 10.168145 28.809745 13.557527 1.694691 0 1.694691 0 3.389381 1.694691 10.168145 5.084073 20.33629 11.862836 30.504436 16.946908 3.389382 1.694691 5.084073 3.389382 8.473454 5.084073 8.473454 3.389382 16.946909 6.778763 20.33629 15.252218 0 0 1.694691 0 1.694691 1.694691 5.084073 3.389382 10.168145 5.084073 15.252218 10.168145 3.389382 1.694691 6.778763 5.084073 5.084072 10.168145 0 1.694691 3.389382 5.084073 5.084073 8.473454 6.778763 5.084073 15.252218 10.168145 22.030981 16.946909 6.778763 5.084073 11.862836 13.557527 16.946908 20.33629 3.389382 5.084073 8.473454 8.473454 11.862836 15.252217 6.778763 10.168145 11.862836 22.030981 16.946909 32.199127 8.473454 13.557527 15.252218 30.504435 28.809744 40.67258 8.473454 5.084073 16.946909 11.862836 25.420363 15.252218 6.778763 3.389382 15.252218 1.694691 22.030981 1.694691 18.641599 1.694691 30.504435-6.778763 40.672581-20.336291 5.084073-6.778763 11.862836-13.557527 16.946908-18.641599 3.389382-3.389382 6.778763-5.084073 11.862836-6.778763 3.389382 6.778763 10.168145 15.252218 13.557527 23.725671 5.084073 10.168145 8.473454 22.030981 11.862836 33.893817 5.084073 11.862836 10.168145 23.725672 13.557527 35.588508v3.389382c1.694691 25.420363 8.473454 50.840726 6.778763 76.261088 0 5.084073 1.694691 8.473454 8.473454 10.168145 13.557527 6.778763 27.115054 3.389382 40.672581-1.69469 15.252218-5.084073 28.809744-13.557527 42.367271-22.030981l1.694691-1.694691c8.473454-8.473454 16.946909-16.946909 23.725672-28.809745 8.473454-13.557527 15.252218-25.420363 20.33629-40.67258 1.694691-5.084073 6.778763-10.168145 8.473454-16.946909 1.694691-5.084073 5.084073-13.557527 6.778764-22.030981z m-260.982391-33.893817c-6.778763 3.389382-16.946909 3.389382-22.030981 0-10.168145-10.168145-25.420363-18.641599-30.504436-33.893817-1.694691-6.778763-5.084073-16.946909-3.389381-22.030981 1.694691-8.473454 6.778763-20.33629 11.862836-27.115054 1.694691-1.694691 3.389382-3.389382 5.084072-3.389381 5.084073-1.694691 13.557527-5.084073 18.641599-3.389382 6.778763 1.694691 18.641599 6.778763 23.725672 11.862836 8.473454 6.778763 16.946909 22.030981 18.6416 33.893817 0 15.252218-1.694691 16.946909-3.389382 25.420363-1.694691 6.778763-6.778763 11.862836-11.862836 18.641599" fill="#424874" p-id="19203"></path></svg>