<?xml version="1.0" standalone="no"?><!DOCTYPE svg PUBLIC "-//W3C//DTD SVG 1.1//EN" "http://www.w3.org/Graphics/SVG/1.1/DTD/svg11.dtd"><svg t="1652914259941" class="icon" viewBox="0 0 1024 1024" version="1.1" xmlns="http://www.w3.org/2000/svg" p-id="9929" xmlns:xlink="http://www.w3.org/1999/xlink" width="128" height="128"><defs><style type="text/css">@font-face { font-family: feedback-iconfont; src: url("//at.alicdn.com/t/font_1031158_u69w8yhxdu.woff2?t=1630033759944") format("woff2"), url("//at.alicdn.com/t/font_1031158_u69w8yhxdu.woff?t=1630033759944") format("woff"), url("//at.alicdn.com/t/font_1031158_u69w8yhxdu.ttf?t=1630033759944") format("truetype"); }
</style></defs><path d="M320.96 0h384v64h-384zM843.2 1024H180.16l-9.28-9.28a259.84 259.84 0 0 1 0-365.44l214.4-214.4V128h64v333.12l-233.28 233.6A195.84 195.84 0 0 0 207.36 960h608a197.12 197.12 0 0 0-8.32-265.28L576 461.12V128h64v306.88l214.72 214.4a258.88 258.88 0 0 1 0 365.44z" fill="#424874" p-id="9930"></path><path d="M230.72 874.24A124.48 124.48 0 0 1 224 832a128 128 0 0 1 37.44-92.16l224-224 45.12 45.44-224 224A64 64 0 0 0 288 832a71.04 71.04 0 0 0 3.52 22.08z" fill="#424874" p-id="9931"></path></svg>