<?xml version="1.0" standalone="no"?><!DOCTYPE svg PUBLIC "-//W3C//DTD SVG 1.1//EN" "http://www.w3.org/Graphics/SVG/1.1/DTD/svg11.dtd"><svg t="1652914875890" class="icon" viewBox="0 0 1024 1024" version="1.1" xmlns="http://www.w3.org/2000/svg" p-id="29984" xmlns:xlink="http://www.w3.org/1999/xlink" width="128" height="128"><defs><style type="text/css">@font-face { font-family: feedback-iconfont; src: url("//at.alicdn.com/t/font_1031158_u69w8yhxdu.woff2?t=1630033759944") format("woff2"), url("//at.alicdn.com/t/font_1031158_u69w8yhxdu.woff?t=1630033759944") format("woff"), url("//at.alicdn.com/t/font_1031158_u69w8yhxdu.ttf?t=1630033759944") format("truetype"); }
</style></defs><path d="M856.062662 674.004721c7.850805-8.095375 17.417695-26.740014-1.179872-40.552601-33.322943-24.743544-75.097372-48.734958-132.285862-69.75776l-36.328393-13.351076 30.448476-23.892153c69.700455-54.700833 109.672842-136.01479 109.672842-223.090984 0-157.811212-131.683135-286.201347-293.5405-286.201347-161.875784 0-293.571199 128.390135-293.571199 286.201347 0 87.079264 39.97341 168.381965 109.668749 223.063355l30.456662 23.896246-36.334533 13.352099C170.010557 627.27442 39.52469 773.372869 5.377986 948.663174c-4.608971 23.661909 17.073864 36.256762 28.102035 34.783201 19.62599-2.619664 30.389124-16.82827 35.20378-34.783201 56.514131-210.750935 242.582921-359.097588 464.163505-359.097588 110.756523 0 199.436238 27.085892 277.467429 87.017866C832.510246 693.629687 851.777055 678.419264 856.062662 674.004721zM301.159526 303.360146c0-125.035738 103.934141-226.76363 231.688803-226.76363 127.750569 0 231.68471 101.726869 231.68471 226.76363 0 125.056204-103.934141 226.793306-231.68471 226.793306C405.093666 530.153452 301.159526 428.41635 301.159526 303.360146z" p-id="29985" fill="#424874"></path><path d="M917.640112 872.600825 868.559277 733.032092 819.466162 872.600825 719.001029 822.668599 766.035252 936.998507 971.072045 936.998507 1020.132414 824.381613Z" p-id="29986" fill="#424874"></path><path d="M766.035252 960.53148l205.03577 0 0 32.721239-205.03577 0 0-32.721239Z" p-id="29987" fill="#424874"></path></svg>