<?xml version="1.0" standalone="no"?><!DOCTYPE svg PUBLIC "-//W3C//DTD SVG 1.1//EN" "http://www.w3.org/Graphics/SVG/1.1/DTD/svg11.dtd"><svg t="1652907221388" class="icon" viewBox="0 0 1103 1024" version="1.1" xmlns="http://www.w3.org/2000/svg" p-id="3665" xmlns:xlink="http://www.w3.org/1999/xlink" width="215.4296875" height="200"><defs><style type="text/css">@font-face { font-family: feedback-iconfont; src: url("//at.alicdn.com/t/font_1031158_u69w8yhxdu.woff2?t=1630033759944") format("woff2"), url("//at.alicdn.com/t/font_1031158_u69w8yhxdu.woff?t=1630033759944") format("woff"), url("//at.alicdn.com/t/font_1031158_u69w8yhxdu.ttf?t=1630033759944") format("truetype"); }
</style></defs><path d="M1059.458679 1024a33.160005 33.160005 0 0 1-27.467538-14.590402 410.078733 410.078733 0 0 0-250.25856-170.575068 367.059153 367.059153 0 0 1-39.648313 100.032683 33.160005 33.160005 0 0 1-61.401277-10.987015 169.801334 169.801334 0 0 0-60.494903-103.149724 168.010694 168.010694 0 0 0-107.062604-37.935046c-93.743335 0-170.011348 76.268012-170.011348 170.011348v0.541613a33.160005 33.160005 0 0 1-65.72313 7.018868 606.518605 606.518605 0 0 1-4.985055-196.484085 381.052675 381.052675 0 0 0-22.217203-152.469705 353.640404 353.640404 0 0 0-62.44029-107.217351c-34.784846-41.06314-80.16984-75.980626-134.905956-103.779763-34.265339-16.712643-46.424008-42.135314-50.602168-60.539117-12.921349-56.913623 34.033219-117.916979 39.427247-124.68162a33.160005 33.160005 0 0 1 42.98642-7.737335l16.690536 10.014322a448.964366 448.964366 0 0 1-1.69116-47.031941c2.210667-115.109432 53.464982-157.344226 96.086642-172.509401A33.160005 33.160005 0 0 1 229.441638 8.850649c0.386867 0.36476 40.23414 37.282899 89.244628 75.936412 82.778427 65.303104 122.69202 81.639933 139.073062 85.563867 32.165205 7.737335 53.299182 4.542921 75.682186 1.215867 28.241271-4.189214 60.295943-8.953201 103.40395 11.926549 28.009151 13.529282 67.016371 43.572247 119.276539 91.842161 33.160005 30.595632 62.462397 60.196463 77.163333 75.284266h5.747734a583.273441 583.273441 0 0 1 244.831373 53.243915A33.160005 33.160005 0 0 1 1096.299445 454.300054a587.120002 587.120002 0 0 1-178.699269 153.287652A520.468391 520.468391 0 0 1 1092.618685 990.386808a33.160005 33.160005 0 0 1-33.160006 33.591085zM755.193523 767.186812a34.331659 34.331659 0 0 1 4.631347 0.320546 475.105504 475.105504 0 0 1 253.121375 119.232326 450.976073 450.976073 0 0 0-39.493567-102.652323A459.686101 459.686101 0 0 0 837.120843 627.837416a33.160005 33.160005 0 0 1 6.035121-57.23417 519.683604 519.683604 0 0 0 172.188855-123.244686 518.301937 518.301937 0 0 0-176.223322-30.474045c-6.355668 0-12.766602 0.110533-19.044897 0.342653A33.160005 33.160005 0 0 1 791.172129 402.349379c-11.053335-11.462309-43.561194-44.699687-80.00404-78.357093-61.257583-56.493596-90.902628-74.897399-103.061296-80.810933-24.803684-11.970762-39.86938-9.726935-64.849918-6.013014s-56.217262 8.367375-100.861683-2.299094c-39.184073-9.373228-93.190668-41.52738-165.103666-98.297309-31.457792-24.825791-58.803743-48.524141-75.549546-63.40193-22.626177 17.088456-34.663259 51.077462-35.768593 101.392243-1.204814 53.188649 11.053335 103.216043 11.152816 103.713443a33.160005 33.160005 0 0 1-49.242608 36.476006l-49.740008-29.844005c-7.737335 14.855682-13.993522 32.176259-11.174922 44.401248 0.641093 2.796494 2.144347 9.340068 15.120962 15.629415l0.541614 0.276334c62.77189 31.844659 115.175752 72.277758 155.752545 120.182913a419.772508 419.772508 0 0 1 74.057345 127.245994 448.588553 448.588553 0 0 1 26.041658 180.954149c0 0.79584-0.13264 1.580627-0.243174 2.376467-1.19376 8.400535-2.210667 16.889496-2.962293 25.422671a236.298198 236.298198 0 0 1 379.427835 32.054672 303.690383 303.690383 0 0 0 7.626801-37.58134 33.160005 33.160005 0 0 1 32.850512-28.617084z" p-id="3666" fill="#cdcdcd"></path><path d="M629.108129 364.76804a27.246471 27.246471 0 0 1-6.698321-0.829l-132.640021-33.160006a27.633338 27.633338 0 0 1 6.698321-54.437675h103.90135a27.633338 27.633338 0 0 1 20.87975 9.539028l28.738671 33.160005A27.633338 27.633338 0 0 1 629.108129 364.76804z" p-id="3667" fill="#cdcdcd"></path></svg>